<?xml version="1.0" encoding="iso-8859-1"?>
<!-- Generator: Adobe Illustrator 19.0.0, SVG Export Plug-In . SVG Version: 6.00 Build 0)  -->
<svg version="1.1" id="Capa_1" xmlns="http://www.w3.org/2000/svg" xmlns:xlink="http://www.w3.org/1999/xlink" x="0px" y="0px"
	 viewBox="0 0 513.232 513.232" style="enable-background:new 0 0 513.232 513.232;" xml:space="preserve">
<path style="fill:#27B2CC;" d="M477.736,276.192c0,77.12-62.512,139.648-139.648,139.648S198.44,353.328,198.44,276.192
	S338.088,0.016,338.088,0.016S477.736,199.072,477.736,276.192z"/>
<path style="fill:#4CC6E5;" d="M380.2,340.88c0,95.184-77.168,172.352-172.352,172.352S35.496,436.08,35.496,340.88
	S207.848,0,207.848,0S380.2,245.696,380.2,340.88z"/>
<path style="fill:#FFFFFF;" d="M348.2,340.88c2.048,17.792,9.856,53.216-35.504,104.848c-45.776,40.416-76.88,38.752-104.848,35.504
	c27.296-6.032,52.752-9.648,93.552-46.816C339.064,393.312,342.6,366.4,348.2,340.88z"/>
<g>
</g>
<g>
</g>
<g>
</g>
<g>
</g>
<g>
</g>
<g>
</g>
<g>
</g>
<g>
</g>
<g>
</g>
<g>
</g>
<g>
</g>
<g>
</g>
<g>
</g>
<g>
</g>
<g>
</g>
</svg>
